# xmcd CD database file
#
# Track frame offsets:
#	151
#	19133
#	37264
#	55510
#	71653
#	94448
#	102229
#	121165
#	136515
#	146636
#	169842
#	184844
#	202714
#	224129
#	245352
#
# Disc length: 3347 seconds
#
# Revision: 0
# Processed by: cddbd v1.5.1PL0 Copyright (c) Steve Scherf et al.
# Submitted via: CDex 1.51
#
DISCID=da0d110f
DTITLE=Oliver Strauch (with Jimmy Woode) - Anatomy of a Trio
DYEAR=2005
DGENRE=Jazz
TTITLE0=Anatomy of a Murder - Flirtibird
TTITLE1=I love you
TTITLE2=Anatomy of a trio I
TTITLE3=SES (Prelude to a caravan)
TTITLE4=Caravan
TTITLE5=Nous trois
TTITLE6=The man from Potter's crossing
TTITLE7=Anatomy of a trio II
TTITLE8=Set-up
TTITLE9=Star crossed lovers
TTITLE10=Drum'n Bass (for Liliom)
TTITLE11=Jimmy speak's
TTITLE12=Take the A-train
TTITLE13=My kind of world
TTITLE14=Anatomy of a Murder - Flirtibird
EXTD=YEAR: 2005
EXTT0=
EXTT1=
EXTT2=
EXTT3=
EXTT4=
EXTT5=
EXTT6=
EXTT7=
EXTT8=
EXTT9=
EXTT10=
EXTT11=
EXTT12=
EXTT13=
EXTT14=
PLAYORDER=
